# File created by Blade
# Date/Time:  Tue Jan 27 19:38:24 2015
#---------------------------------------------------------
:version 1.10
:name HOM
:units
  mass 1.0
  length 1.000000
  angle deg
:documentation
     Acclaim Skeleton File
:root
   axis xyz
   order TX TY TZ RX RY RZ
   position 0.000000 0.000000 0.000000
   orientation 0 0 0
:bonedata
   begin
      id 1
      name Spine_dum
      direction 0.000000 1.000000 0.000000
      length 6.116652
      axis 0.0 0.0 0.0 xyz
   end
   begin
      id 2
      name LeftUpLeg_dum
      direction 1.000000 0.000000 0.000000
      length 4.711765
      axis 0.0 0.0 0.0 xyz
   end
   begin
      id 3
      name RightUpLeg_dum
      direction -1.000000 0.000000 0.000000
      length 4.711765
      axis 0.0 0.0 0.0 xyz
   end
   begin
      id 4
      name Spine
      direction 0.000000 1.000000 0.000000
      length 0.000000
      axis 0.0 0.0 0.0 xyz
      dof rx ry rz
   end
   begin
      id 5
      name Spine_dum1
      direction 0.000000 1.000000 0.000000
      length 15.225563
      axis 0.0 0.0 0.0 xyz
   end
   begin
      id 6
      name Spine_dum2
      direction 0.000000 1.000000 0.000000
      length 8.977654
      axis 0.0 0.0 0.0 xyz
   end
   begin
      id 7
      name Spine_dum3
      direction 0.000000 1.000000 0.000000
      length 8.977654
      axis 0.0 0.0 0.0 xyz
   end
   begin
      id 8
      name Head
      direction 0.000000 1.000000 0.000000
      length 4.527550
      axis 0.0 0.0 0.0 xyz
      dof rx ry rz
   end
   begin
      id 9
      name LeftShoulder
      direction 1.000000 0.000000 0.000000
      length 7.110130
      axis 0.0 0.0 -90.0 xyz
      dof rx ry rz
   end
   begin
      id 10
      name LeftArm
      direction 1.000000 0.000000 0.000000
      length 10.398341
      axis 0.0 0.0 -90.0 xyz
      dof rx ry rz
   end
   begin
      id 11
      name LeftForeArm
      direction 1.000000 0.000000 0.000000
      length 8.888997
      axis 0.0 0.0 -90.0 xyz
      dof ry rz rx
   end
   begin
      id 12
      name LeftHand
      direction 0.000000 0.000000 0.000000
      length 0.000000
      axis 0.0 0.0 -90.0 xyz
      dof rx ry rz
   end
   begin
      id 13
      name LeftHand_dum1
      direction 0.000000 0.000000 0.000000
      length 0.000000
      axis 0.0 0.0 -90.0 xyz
   end
   begin
      id 14
      name LeftHand_dum2
      direction 1.000000 0.000000 0.000000
      length 3.937000
      axis 0.0 0.0 -90.0 xyz
   end
   begin
      id 15
      name LeftHandThumb1
      direction 0.000000 0.000000 1.000000
      length 3.937000
      axis 0.0 0.0 -90.0 xyz
      dof rx rz ry
   end
   begin
      id 16
      name RightShoulder
      direction -1.000000 0.000000 0.000000
      length 7.110130
      axis 0.0 0.0 90.0 xyz
      dof rx ry rz
   end
   begin
      id 17
      name RightArm
      direction -1.000000 0.000000 0.000000
      length 10.398341
      axis 0.0 0.0 90.0 xyz
      dof rx ry rz
   end
   begin
      id 18
      name RightForeArm
      direction -1.000000 0.000000 0.000000
      length 8.888997
      axis 0.0 0.0 90.0 xyz
      dof ry rz rx
   end
   begin
      id 19
      name RightHand
      direction 0.000000 0.000000 0.000000
      length 0.000000
      axis 0.0 0.0 90.0 xyz
      dof rx ry rz
   end
   begin
      id 20
      name RightHand_dum1
      direction 0.000000 0.000000 0.000000
      length 0.000000
      axis 0.0 0.0 90.0 xyz
   end
   begin
      id 21
      name RightHand_dum2
      direction -1.000000 0.000000 0.000000
      length 3.937000
      axis 0.0 0.0 90.0 xyz
   end
   begin
      id 22
      name RightHandThumb1
      direction 0.000000 0.000000 1.000000
      length 3.937000
      axis 0.0 0.0 90.0 xyz
      dof rx rz ry
   end
   begin
      id 23
      name LeftUpLeg
      direction 0.000000 -1.000000 0.000000
      length 15.510451
      axis 0.0 0.0 0.0 xyz
      dof rx ry rz
   end
   begin
      id 24
      name LeftLeg
      direction 0.000000 -1.000000 0.000000
      length 14.858061
      axis 0.0 0.0 0.0 xyz
      dof rx ry rz
   end
   begin
      id 25
      name LeftFoot
      direction 0.000000 -0.258819 0.965926
      length 5.128852
      axis 15.0 0.0 0.0 xyz
      dof rx ry rz
   end
   begin
      id 26
      name LeftToeBase
      direction 0.000000 0.000000 1.000000
      length 2.952750
      axis 0.0 0.0 0.0 xyz
      dof rx ry rz
   end
   begin
      id 27
      name RightUpLeg
      direction 0.000000 -1.000000 0.000000
      length 15.510451
      axis 0.0 0.0 0.0 xyz
      dof rx ry rz
   end
   begin
      id 28
      name RightLeg
      direction 0.000000 -1.000000 0.000000
      length 14.858061
      axis 0.0 0.0 0.0 xyz
      dof rx ry rz
   end
   begin
      id 29
      name RightFoot
      direction 0.000000 -0.258819 0.965926
      length 5.128852
      axis 15.0 0.0 0.0 xyz
      dof rx ry rz
   end
   begin
      id 30
      name RightToeBase
      direction 0.000000 0.000000 1.000000
      length 2.952750
      axis 0.0 0.0 0.0 xyz
      dof rx ry rz
   end
:hierarchy
   begin
      root Spine_dum LeftUpLeg_dum RightUpLeg_dum
      Spine_dum Spine
      LeftUpLeg_dum LeftUpLeg
      RightUpLeg_dum RightUpLeg
      Spine Spine_dum1 Spine_dum2 Spine_dum3
      Spine_dum1 Head
      Spine_dum2 LeftShoulder
      Spine_dum3 RightShoulder
      LeftShoulder LeftArm
      LeftArm LeftForeArm
      LeftForeArm LeftHand
      LeftHand LeftHand_dum1 LeftHand_dum2
      LeftHand_dum1 LeftHandThumb1
      RightShoulder RightArm
      RightArm RightForeArm
      RightForeArm RightHand
      RightHand RightHand_dum1 RightHand_dum2
      RightHand_dum1 RightHandThumb1
      LeftUpLeg LeftLeg
      LeftLeg LeftFoot
      LeftFoot LeftToeBase
      RightUpLeg RightLeg
      RightLeg RightFoot
      RightFoot RightToeBase
   end

# File created by Blade
# Date/Time:  Tue Jan 27 19:38:14 2015
# Frame Rate: 120.000 fps
#------------------------------------------------------
:FULLY-SPECIFIED
:DEGREES
1299
root 4.680300 32.300291 2.098122 -5.727862 -3.850528 0.040972
Spine 3.072902 14.050150 0.287940
Head 9.881512 -13.933151 3.329051
LeftShoulder -6.781006 -4.227152 27.669654
LeftArm -0.921176 38.591103 -100.299279
LeftForeArm 4.146250 -0.000000 12.516522
LeftHand 10.387362 -0.000000 -4.933991
LeftHandThumb1 -26.253704 0.000000 33.147579
RightShoulder -5.800844 -1.125015 -24.167205
RightArm 17.680285 21.199916 116.196415
RightForeArm -3.545676 -0.000000 86.829209
RightHand 22.425009 0.000000 -10.462915
RightHandThumb1 -24.326973 -0.000000 -32.862282
LeftUpLeg 9.780375 -1.179060 -3.589004
LeftLeg 3.952355 -0.000000 -0.000000
LeftFoot -19.250933 15.297582 -22.275523
LeftToeBase 16.398597 -0.000000 -0.000000
RightUpLeg 7.708026 -4.966179 2.717163
RightLeg 4.609234 -0.000000 -0.000000
RightFoot -12.761977 -11.942704 12.957650
RightToeBase 8.844225 -0.000000 -0.000000
1300
root 4.680052 32.300240 2.098396 -5.740935 -3.847254 0.040055
Spine 3.074822 14.083509 0.277145
Head 9.924157 -13.960459 3.341762
LeftShoulder -6.760327 -4.269904 27.664550
LeftArm -0.923847 38.651065 -100.318537
LeftForeArm 4.133125 -0.000000 12.535251
LeftHand 10.412477 -0.000000 -5.206139
LeftHandThumb1 -26.253704 0.000000 33.147579
RightShoulder -5.795182 -1.069702 -24.184536
RightArm 17.672066 21.254812 116.170343
RightForeArm -3.440669 -0.000000 86.699954
RightHand 22.429190 -0.000000 -10.442081
RightHandThumb1 -24.326973 -0.000000 -32.862282
LeftUpLeg 9.792308 -1.187865 -3.588884
LeftLeg 3.949496 -0.000000 -0.000000
LeftFoot -19.186168 15.331471 -22.135580
LeftToeBase 16.286606 -0.000000 -0.000000
RightUpLeg 7.717439 -4.967805 2.716988
RightLeg 4.619490 -0.000000 -0.000000
RightFoot -12.762331 -11.938318 12.954717
RightToeBase 8.865615 -0.000000 -0.000000
1301
root 4.680154 32.300611 2.097531 -5.756185 -3.841526 0.042598
Spine 3.070637 13.983565 0.273620
Head 9.998437 -13.893863 3.313474
LeftShoulder -6.824639 -4.228707 27.643071
LeftArm -0.911200 38.712212 -100.314463
LeftForeArm 4.032765 -0.000000 12.567617
LeftHand 10.481904 -0.000000 -5.416280
LeftHandThumb1 -26.253704 0.000000 33.147579
RightShoulder -5.641619 -0.951864 -24.211022
RightArm 17.661411 21.348723 116.170607
RightForeArm -3.347974 0.000000 86.567608
RightHand 22.454976 -0.000000 -10.433015
RightHandThumb1 -24.326973 -0.000000 -32.862282
LeftUpLeg 9.799266 -1.202025 -3.593931
LeftLeg 3.965382 -0.000000 -0.000000
LeftFoot -19.262404 15.305057 -22.300947
LeftToeBase 16.387328 -0.000000 -0.000000
RightUpLeg 7.721434 -4.959428 2.715562
RightLeg 4.639820 -0.000000 -0.000000
RightFoot -12.770489 -11.957097 12.948215
RightToeBase 8.850922 -0.000000 -0.000000
1302
root 4.680424 32.300490 2.098031 -5.770428 -3.842023 0.041544
Spine 3.074610 14.009790 0.271517
Head 10.020788 -13.957283 3.321189
LeftShoulder -6.816008 -4.239493 27.636588
LeftArm -0.887518 38.758809 -100.324522
LeftForeArm 4.037201 -0.000000 12.592687
LeftHand 10.539276 -0.000000 -5.419760
LeftHandThumb1 -26.253704 0.000000 33.147579
RightShoulder -5.615124 -0.895667 -24.223378
RightArm 17.640230 21.408020 116.144291
RightForeArm -3.245732 -0.000000 86.437596
RightHand 22.519110 -0.000000 -10.429833
RightHandThumb1 -24.326973 -0.000000 -32.862282
LeftUpLeg 9.810753 -1.222616 -3.597740
LeftLeg 3.976463 -0.000000 -0.000000
LeftFoot -19.289749 15.310551 -22.332809
LeftToeBase 16.437729 -0.000000 -0.000000
RightUpLeg 7.733863 -4.968937 2.713230
RightLeg 4.643931 -0.000000 -0.000000
RightFoot -12.768806 -11.948838 12.956036
RightToeBase 8.781342 -0.000000 -0.000000
1303
root 4.680606 32.300606 2.098839 -5.777150 -3.842955 0.041739
Spine 3.078064 14.151829 0.255487
Head 10.000995 -14.125921 3.391898
LeftShoulder -6.722925 -4.333606 27.648763
LeftArm -0.902585 38.808176 -100.371632
LeftForeArm 3.955678 0.000000 12.615134
LeftHand 10.600217 -0.000000 -5.854300
LeftHandThumb1 -26.253704 0.000000 33.147579
RightShoulder -5.720370 -0.930063 -24.200081
RightArm 17.652626 21.426957 116.115800
RightForeArm -3.179734 -0.000000 86.313023
RightHand 22.540723 -0.000000 -10.394344
RightHandThumb1 -24.326973 -0.000000 -32.862282
LeftUpLeg 9.816065 -1.188199 -3.592305
LeftLeg 3.975453 -0.000000 -0.000000
LeftFoot -19.241546 15.318244 -22.243050
LeftToeBase 16.349169 -0.000000 -0.000000
RightUpLeg 7.740956 -4.970659 2.712176
RightLeg 4.644351 -0.000000 -0.000000
RightFoot -12.761685 -11.957262 12.950222
RightToeBase 8.768373 -0.000000 -0.000000
1304
root 4.679177 32.300499 2.100003 -5.806687 -3.846415 0.037241
Spine 3.096563 14.090527 0.265018
Head 10.046536 -14.068507 3.356202
LeftShoulder -6.775513 -4.295474 27.643527
LeftArm -0.889286 38.897206 -100.389980
LeftForeArm 4.181586 -0.000000 12.666324
LeftHand 10.462361 -0.000000 -4.386103
LeftHandThumb1 -26.253704 0.000000 33.147579
RightShoulder -5.610002 -0.896514 -24.209879
RightArm 17.672555 21.462742 116.135972
RightForeArm -3.189071 0.000000 86.211242
RightHand 22.566477 -0.000000 -10.375497
RightHandThumb1 -24.326973 -0.000000 -32.862282
LeftUpLeg 9.848556 -1.183933 -3.584652
LeftLeg 3.978065 -0.000000 -0.000000
LeftFoot -19.262528 15.287766 -22.283816
LeftToeBase 16.459532 -0.000000 -0.000000
RightUpLeg 7.774448 -4.956258 2.719205
RightLeg 4.639352 -0.000000 -0.000000
RightFoot -12.758695 -11.963303 12.939674
RightToeBase 8.772002 -0.000000 -0.000000
1305
root 4.680228 32.300419 2.099676 -5.805504 -3.844911 0.036535
Spine 3.099686 14.209830 0.259906
Head 10.001789 -14.239377 3.396450
LeftShoulder -6.706675 -4.339030 27.646781
LeftArm -0.852640 38.938015 -100.409305
LeftForeArm 4.077393 -0.000000 12.691370
LeftHand 10.450189 -0.000000 -4.913251
LeftHandThumb1 -26.253704 0.000000 33.147579
RightShoulder -5.699727 -0.909228 -24.197792
RightArm 17.635431 21.462230 116.110279
RightForeArm -3.168978 -0.000000 86.132223
RightHand 22.642735 -0.000000 -10.475226
RightHandThumb1 -24.326973 -0.000000 -32.862282
LeftUpLeg 9.840866 -1.197575 -3.587781
LeftLeg 3.992129 -0.000000 -0.000000
LeftFoot -19.279602 15.295524 -22.300363
LeftToeBase 16.429916 -0.000000 -0.000000
RightUpLeg 7.767126 -4.948839 2.719347
RightLeg 4.650361 -0.000000 -0.000000
RightFoot -12.767945 -11.986249 12.923948
RightToeBase 8.853910 -0.000000 -0.000000
